<svg id="Layer_1" data-name="Layer 1" xmlns="http://www.w3.org/2000/svg" viewBox="0 0 236.4 103.11"><defs><style>.cls-1{fill:#808285;}.cls-2{fill:#365888;}</style></defs><path class="cls-1" d="M0,88.65H1.92v14H0Z"/><path class="cls-1" d="M18.46,88.65H20.7l7,11.35V88.65h1.82v14H27.39L20.27,91.36V102.7H18.46Z"/><path class="cls-1" d="M46.14,88.65h5.62a5.26,5.26,0,0,1,4.43,2,7.65,7.65,0,0,1,1.41,4.76,9.68,9.68,0,0,1-.83,4.05,5.12,5.12,0,0,1-5,3.19h-5.6Zm5.24,12.42a4.93,4.93,0,0,0,1.56-.2,3.36,3.36,0,0,0,1.77-1.43,5.94,5.94,0,0,0,.8-2.18,8.88,8.88,0,0,0,.14-1.48,6.93,6.93,0,0,0-1-4,3.69,3.69,0,0,0-3.27-1.45h-3.3v10.79Z"/><path class="cls-1" d="M75.7,88.65v8.68a5.17,5.17,0,0,0,.58,2.55,3.05,3.05,0,0,0,2.9,1.53,3.39,3.39,0,0,0,3.31-1.66A5.15,5.15,0,0,0,83,97.33V88.65h1.92v7.89a9.06,9.06,0,0,1-.7,4c-.86,1.7-2.48,2.54-4.86,2.54s-4-.84-4.85-2.54a9.06,9.06,0,0,1-.7-4V88.65Z"/><path class="cls-1" d="M102.49,98.17a3.93,3.93,0,0,0,.54,1.94,3.56,3.56,0,0,0,3.22,1.4,5.61,5.61,0,0,0,1.88-.31,2.16,2.16,0,0,0,1.64-2.13,1.83,1.83,0,0,0-.7-1.63,6.7,6.7,0,0,0-2.2-.83L105,96.18a8.43,8.43,0,0,1-2.56-.93,3,3,0,0,1-1.29-2.63,4.09,4.09,0,0,1,1.27-3.11,5,5,0,0,1,3.61-1.22,6.16,6.16,0,0,1,3.66,1.07,3.9,3.9,0,0,1,1.5,3.41h-1.79a3.59,3.59,0,0,0-.58-1.73,3.34,3.34,0,0,0-2.84-1.1,3.2,3.2,0,0,0-2.32.7,2.3,2.3,0,0,0-.71,1.65,1.61,1.61,0,0,0,.84,1.51,11.68,11.68,0,0,0,2.47.77l1.91.45a5.63,5.63,0,0,1,2.14.89,3.37,3.37,0,0,1,1.29,2.86,3.6,3.6,0,0,1-1.65,3.34,7.29,7.29,0,0,1-3.85,1,5.61,5.61,0,0,1-4-1.34,4.54,4.54,0,0,1-1.42-3.6Z"/><path class="cls-1" d="M138,88.65v1.67h-4.74V102.7h-1.93V90.32h-4.73V88.65Z"/><path class="cls-1" d="M153.4,88.65h6.39a6.31,6.31,0,0,1,2.6.46,3.33,3.33,0,0,1,2,3.32,3.69,3.69,0,0,1-.53,2.07,3.65,3.65,0,0,1-1.45,1.29,3,3,0,0,1,1.24.88,3.24,3.24,0,0,1,.46,1.77l.07,1.89a5.9,5.9,0,0,0,.13,1.19,1.19,1.19,0,0,0,.61.87v.31h-2.33a1.61,1.61,0,0,1-.16-.47,10,10,0,0,1-.09-1.11l-.12-2.34a2,2,0,0,0-1-1.85,4,4,0,0,0-1.66-.26H155.3v6h-1.9Zm6.18,6.44a3.53,3.53,0,0,0,2.07-.54,2.22,2.22,0,0,0,.75-1.93,2.07,2.07,0,0,0-1.06-2.05,3.38,3.38,0,0,0-1.51-.29H155.3v4.81Z"/><path class="cls-1" d="M181.19,88.65h1.93v14h-1.93Z"/><path class="cls-1" d="M199.83,88.65H210v1.72h-8.34v4.27h7.71v1.62h-7.71V101h8.49v1.67H199.83Z"/><path class="cls-1" d="M227.27,98.17a3.93,3.93,0,0,0,.54,1.94,3.56,3.56,0,0,0,3.22,1.4,5.66,5.66,0,0,0,1.88-.31,2.16,2.16,0,0,0,1.64-2.13,1.83,1.83,0,0,0-.7-1.63,6.7,6.7,0,0,0-2.2-.83l-1.85-.43a8.43,8.43,0,0,1-2.56-.93A3,3,0,0,1,226,92.62a4.09,4.09,0,0,1,1.27-3.11,5,5,0,0,1,3.61-1.22,6.16,6.16,0,0,1,3.66,1.07,3.9,3.9,0,0,1,1.5,3.41H234.2a3.59,3.59,0,0,0-.58-1.73,3.34,3.34,0,0,0-2.84-1.1,3.2,3.2,0,0,0-2.32.7,2.3,2.3,0,0,0-.71,1.65,1.61,1.61,0,0,0,.84,1.51,11.68,11.68,0,0,0,2.47.77L233,95a5.63,5.63,0,0,1,2.14.89,3.37,3.37,0,0,1,1.29,2.86,3.6,3.6,0,0,1-1.65,3.34,7.29,7.29,0,0,1-3.85,1,5.65,5.65,0,0,1-4-1.34,4.57,4.57,0,0,1-1.41-3.6Z"/><path class="cls-2" d="M119.31,17.57l-4,29.48c5.24-.62,16.32-2.43,18.92-13.54C137.77,18.66,123.53,17.43,119.31,17.57Z"/><polygon class="cls-2" points="175.26 81 171.44 40.6 165.13 81 175.26 81"/><polygon class="cls-2" points="203.2 81 211.33 41.3 193.05 81 203.2 81"/><path class="cls-2" d="M51.06,45.82l14-33.27h35.08L90.81,81h3.38l10.31-68.3,15.43-.14c13.32,0,34,0,30.36,22.33C147,55.15,116.18,54.27,114.53,54.32L110.74,81h32.85l12.83-68.32h28l4.23,42.24,20.65-42.36h27V0h-190Z"/><polygon class="cls-2" points="66.72 81 75.17 30.33 55.45 81 66.72 81"/><polygon class="cls-2" points="14.23 0 0.13 0 0.13 81 1.1 81 14.23 0"/><polygon class="cls-2" points="224.46 81 236.3 81 236.3 15.9 224.46 81"/><polygon class="cls-2" points="36.59 81 31.9 28.57 24.81 81 36.59 81"/></svg>